<svg version="1.1" xmlns="http://www.w3.org/2000/svg" width="650" height="400"><defs><clipPath id="CwOIAgvoQulI"><path fill="none" stroke="none" d="M 50.5 27.5 L 620.5 27.5 L 620.5 350.5 L 50.5 350.5 L 50.5 27.5"/></clipPath><clipPath id="tnBaNfTsrcPP"><path fill="none" stroke="none" d="M 50.5 27.5 L 620.5 27.5 L 620.5 350.5 L 50.5 350.5 L 50.5 27.5"/></clipPath><clipPath id="fTLbanCbwNhc"><path fill="none" stroke="none" d="M 50.5 27.5 L 620.5 27.5 L 620.5 350.5 L 50.5 350.5 L 50.5 27.5"/></clipPath><clipPath id="BMTVIEwqnqLk"><path fill="none" stroke="none" d="M 50.5 27.5 L 620.5 27.5 L 620.5 350.5 L 50.5 350.5 L 50.5 27.5"/></clipPath><clipPath id="GDoBrqcDENcQ"><path fill="none" stroke="none" d="M 50.5 27.5 L 620.5 27.5 L 620.5 350.5 L 50.5 350.5 L 50.5 27.5"/></clipPath><clipPath id="IhovVFenqVpZ"><path fill="none" stroke="none" d="M 50.5 27.5 L 620.5 27.5 L 620.5 350.5 L 50.5 350.5 L 50.5 27.5"/></clipPath><clipPath id="kEwmFVnERftc"><path fill="none" stroke="none" d="M 50.5 27.5 L 620.5 27.5 L 620.5 350.5 L 50.5 350.5 L 50.5 27.5"/></clipPath><clipPath id="BudzVfXBqUTv"><path fill="none" stroke="none" d="M 50.5 27.5 L 620.5 27.5 L 620.5 350.5 L 50.5 350.5 L 50.5 27.5"/></clipPath><clipPath id="nRSdhslTQaDK"><path fill="none" stroke="none" d="M 50.5 27.5 L 620.5 27.5 L 620.5 350.5 L 50.5 350.5 L 50.5 27.5"/></clipPath><clipPath id="CoSgQIkposty"><path fill="none" stroke="none" d="M 50.5 27.5 L 620.5 27.5 L 620.5 350.5 L 50.5 350.5 L 50.5 27.5"/></clipPath><clipPath id="kZhhbkITehXH"><path fill="none" stroke="none" d="M 50.5 27.5 L 620.5 27.5 L 620.5 350.5 L 50.5 350.5 L 50.5 27.5"/></clipPath></defs><path fill="rgb(255,255,255)" stroke="none" paint-order="stroke" d="M 0.5 0.5 L 650.5 0.5 L 650.5 400.5 L 0.5 400.5 L 0.5 0.5" fill-opacity="1"/><rect fill="#FFFFFF" stroke="none" x="50" y="27" width="570" height="323" transform="matrix(1, 0, 0, 1, 0.5, 0.5)"/><path fill="rgb(255,255,255)" stroke="none" paint-order="stroke" d="M 50.5 27.5 L 620.5 27.5 L 620.5 350.5 L 50.5 350.5 L 50.5 27.5" fill-opacity="1"/><path fill="none" stroke="rgb(229,229,229)" paint-order="fill" d="M 50.5 27.5 L 620.5 27.5 L 620.5 350.5 L 50.5 350.5 L 50.5 27.5" stroke-opacity="1" stroke-linejoin="bevel" stroke-miterlimit="10" stroke-dasharray=""/><path fill="none" stroke="rgb(0,0,0)" paint-order="fill" d="M 107.5 78.43167114257812 L 107.5 132.77345275878906" stroke-opacity="1" stroke-linejoin="bevel" stroke-miterlimit="10" stroke-dasharray="" clip-path="url(#BMTVIEwqnqLk)"/><path fill="none" stroke="rgb(0,0,0)" paint-order="fill" d="M 221.5 65.38505554199219 L 221.5 114.95761108398438" stroke-opacity="1" stroke-linejoin="bevel" stroke-miterlimit="10" stroke-dasharray="" clip-path="url(#BMTVIEwqnqLk)"/><path fill="none" stroke="rgb(0,0,0)" paint-order="fill" d="M 335.5 56.79545211791992 L 335.5 114.28150939941406" stroke-opacity="1" stroke-linejoin="bevel" stroke-miterlimit="10" stroke-dasharray="" clip-path="url(#BMTVIEwqnqLk)"/><path fill="none" stroke="rgb(0,0,0)" paint-order="fill" d="M 449.5 58.42608642578125 L 449.5 114.66407012939453" stroke-opacity="1" stroke-linejoin="bevel" stroke-miterlimit="10" stroke-dasharray="" clip-path="url(#BMTVIEwqnqLk)"/><path fill="none" stroke="rgb(0,0,0)" paint-order="fill" d="M 563.5 65.38505554199219 L 563.5 114.95761108398438" stroke-opacity="1" stroke-linejoin="bevel" stroke-miterlimit="10" stroke-dasharray="" clip-path="url(#BMTVIEwqnqLk)"/><path fill="none" stroke="rgb(0,0,0)" paint-order="fill" d="M 107.5 260.75018310546875 L 107.5 184.19970703125" stroke-opacity="1" stroke-linejoin="bevel" stroke-miterlimit="10" stroke-dasharray="" clip-path="url(#GDoBrqcDENcQ)"/><path fill="none" stroke="rgb(0,0,0)" paint-order="fill" d="M 221.5 235.17323303222656 L 221.5 163.08932495117188" stroke-opacity="1" stroke-linejoin="bevel" stroke-miterlimit="10" stroke-dasharray="" clip-path="url(#GDoBrqcDENcQ)"/><path fill="none" stroke="rgb(0,0,0)" paint-order="fill" d="M 335.5 227.87841796875 L 335.5 159.8799285888672" stroke-opacity="1" stroke-linejoin="bevel" stroke-miterlimit="10" stroke-dasharray="" clip-path="url(#GDoBrqcDENcQ)"/><path fill="none" stroke="rgb(0,0,0)" paint-order="fill" d="M 449.5 224.38768005371094 L 449.5 158.59756469726562" stroke-opacity="1" stroke-linejoin="bevel" stroke-miterlimit="10" stroke-dasharray="" clip-path="url(#GDoBrqcDENcQ)"/><path fill="none" stroke="rgb(0,0,0)" paint-order="fill" d="M 563.5 235.17323303222656 L 563.5 163.08932495117188" stroke-opacity="1" stroke-linejoin="bevel" stroke-miterlimit="10" stroke-dasharray="" clip-path="url(#GDoBrqcDENcQ)"/><path fill="none" stroke="rgb(0,0,0)" paint-order="fill" d="M 84.70000457763672 260.75018310546875 L 130.3000030517578 260.75018310546875" stroke-opacity="1" stroke-linejoin="bevel" stroke-miterlimit="10" stroke-dasharray="" clip-path="url(#IhovVFenqVpZ)"/><path fill="none" stroke="rgb(0,0,0)" paint-order="fill" d="M 198.6999969482422 235.17323303222656 L 244.3000030517578 235.17323303222656" stroke-opacity="1" stroke-linejoin="bevel" stroke-miterlimit="10" stroke-dasharray="" clip-path="url(#IhovVFenqVpZ)"/><path fill="none" stroke="rgb(0,0,0)" paint-order="fill" d="M 312.6999816894531 227.87841796875 L 358.3000183105469 227.87841796875" stroke-opacity="1" stroke-linejoin="bevel" stroke-miterlimit="10" stroke-dasharray="" clip-path="url(#IhovVFenqVpZ)"/><path fill="none" stroke="rgb(0,0,0)" paint-order="fill" d="M 426.6999816894531 224.38768005371094 L 472.3000183105469 224.38768005371094" stroke-opacity="1" stroke-linejoin="bevel" stroke-miterlimit="10" stroke-dasharray="" clip-path="url(#IhovVFenqVpZ)"/><path fill="none" stroke="rgb(0,0,0)" paint-order="fill" d="M 540.7000122070312 235.17323303222656 L 586.2999877929688 235.17323303222656" stroke-opacity="1" stroke-linejoin="bevel" stroke-miterlimit="10" stroke-dasharray="" clip-path="url(#IhovVFenqVpZ)"/><path fill="none" stroke="rgb(0,0,0)" paint-order="fill" d="M 84.70000457763672 78.43167114257812 L 130.3000030517578 78.43167114257812" stroke-opacity="1" stroke-linejoin="bevel" stroke-miterlimit="10" stroke-dasharray="" clip-path="url(#kEwmFVnERftc)"/><path fill="none" stroke="rgb(0,0,0)" paint-order="fill" d="M 198.6999969482422 65.38505554199219 L 244.3000030517578 65.38505554199219" stroke-opacity="1" stroke-linejoin="bevel" stroke-miterlimit="10" stroke-dasharray="" clip-path="url(#kEwmFVnERftc)"/><path fill="none" stroke="rgb(0,0,0)" paint-order="fill" d="M 312.6999816894531 56.79545211791992 L 358.3000183105469 56.79545211791992" stroke-opacity="1" stroke-linejoin="bevel" stroke-miterlimit="10" stroke-dasharray="" clip-path="url(#kEwmFVnERftc)"/><path fill="none" stroke="rgb(0,0,0)" paint-order="fill" d="M 426.6999816894531 58.42608642578125 L 472.3000183105469 58.42608642578125" stroke-opacity="1" stroke-linejoin="bevel" stroke-miterlimit="10" stroke-dasharray="" clip-path="url(#kEwmFVnERftc)"/><path fill="none" stroke="rgb(0,0,0)" paint-order="fill" d="M 540.7000122070312 65.38505554199219 L 586.2999877929688 65.38505554199219" stroke-opacity="1" stroke-linejoin="bevel" stroke-miterlimit="10" stroke-dasharray="" clip-path="url(#kEwmFVnERftc)"/><path fill="rgb(253,168,71)" stroke="rgb(0,0,0)" paint-order="fill" d="M 67.5999984741211 156.84934997558594 L 147.39999389648438 156.84934997558594 L 147.39999389648438 132.77345275878906 L 67.5999984741211 132.77345275878906 L 67.5999984741211 156.84934997558594" fill-opacity="1" clip-path="url(#BudzVfXBqUTv)" stroke-opacity="1" stroke-linejoin="bevel" stroke-miterlimit="10" stroke-dasharray=""/><path fill="rgb(253,168,71)" stroke="rgb(0,0,0)" paint-order="fill" d="M 181.60000610351562 138.85153198242188 L 261.3999938964844 138.85153198242188 L 261.3999938964844 114.95761108398438 L 181.60000610351562 114.95761108398438 L 181.60000610351562 138.85153198242188" fill-opacity="1" clip-path="url(#BudzVfXBqUTv)" stroke-opacity="1" stroke-linejoin="bevel" stroke-miterlimit="10" stroke-dasharray=""/><path fill="rgb(253,168,71)" stroke="rgb(0,0,0)" paint-order="fill" d="M 295.6000061035156 137.702880859375 L 375.3999938964844 137.702880859375 L 375.3999938964844 114.28150939941406 L 295.6000061035156 114.28150939941406 L 295.6000061035156 137.702880859375" fill-opacity="1" clip-path="url(#BudzVfXBqUTv)" stroke-opacity="1" stroke-linejoin="bevel" stroke-miterlimit="10" stroke-dasharray=""/><path fill="rgb(253,168,71)" stroke="rgb(0,0,0)" paint-order="fill" d="M 409.6000061035156 137.7860870361328 L 489.3999938964844 137.7860870361328 L 489.3999938964844 114.66407012939453 L 409.6000061035156 114.66407012939453 L 409.6000061035156 137.7860870361328" fill-opacity="1" clip-path="url(#BudzVfXBqUTv)" stroke-opacity="1" stroke-linejoin="bevel" stroke-miterlimit="10" stroke-dasharray=""/><path fill="rgb(253,168,71)" stroke="rgb(0,0,0)" paint-order="fill" d="M 523.5999755859375 138.85153198242188 L 603.4000244140625 138.85153198242188 L 603.4000244140625 114.95761108398438 L 523.5999755859375 114.95761108398438 L 523.5999755859375 138.85153198242188" fill-opacity="1" clip-path="url(#BudzVfXBqUTv)" stroke-opacity="1" stroke-linejoin="bevel" stroke-miterlimit="10" stroke-dasharray=""/><path fill="rgb(253,168,71)" stroke="rgb(0,0,0)" paint-order="fill" d="M 67.5999984741211 184.19970703125 L 147.39999389648438 184.19970703125 L 147.39999389648438 156.84934997558594 L 67.5999984741211 156.84934997558594 L 67.5999984741211 184.19970703125" fill-opacity="1" clip-path="url(#nRSdhslTQaDK)" stroke-opacity="1" stroke-linejoin="bevel" stroke-miterlimit="10" stroke-dasharray=""/><path fill="rgb(253,168,71)" stroke="rgb(0,0,0)" paint-order="fill" d="M 181.60000610351562 163.08932495117188 L 261.3999938964844 163.08932495117188 L 261.3999938964844 138.85153198242188 L 181.60000610351562 138.85153198242188 L 181.60000610351562 163.08932495117188" fill-opacity="1" clip-path="url(#nRSdhslTQaDK)" stroke-opacity="1" stroke-linejoin="bevel" stroke-miterlimit="10" stroke-dasharray=""/><path fill="rgb(253,168,71)" stroke="rgb(0,0,0)" paint-order="fill" d="M 295.6000061035156 159.8799285888672 L 375.3999938964844 159.8799285888672 L 375.3999938964844 137.702880859375 L 295.6000061035156 137.702880859375 L 295.6000061035156 159.8799285888672" fill-opacity="1" clip-path="url(#nRSdhslTQaDK)" stroke-opacity="1" stroke-linejoin="bevel" stroke-miterlimit="10" stroke-dasharray=""/><path fill="rgb(253,168,71)" stroke="rgb(0,0,0)" paint-order="fill" d="M 409.6000061035156 158.59756469726562 L 489.3999938964844 158.59756469726562 L 489.3999938964844 137.7860870361328 L 409.6000061035156 137.7860870361328 L 409.6000061035156 158.59756469726562" fill-opacity="1" clip-path="url(#nRSdhslTQaDK)" stroke-opacity="1" stroke-linejoin="bevel" stroke-miterlimit="10" stroke-dasharray=""/><path fill="rgb(253,168,71)" stroke="rgb(0,0,0)" paint-order="fill" d="M 523.5999755859375 163.08932495117188 L 603.4000244140625 163.08932495117188 L 603.4000244140625 138.85153198242188 L 523.5999755859375 138.85153198242188 L 523.5999755859375 163.08932495117188" fill-opacity="1" clip-path="url(#nRSdhslTQaDK)" stroke-opacity="1" stroke-linejoin="bevel" stroke-miterlimit="10" stroke-dasharray=""/><path fill="none" stroke="rgb(0,0,0)" paint-order="fill" d="M 50.5 350.5 L 620.5 350.5" stroke-opacity="1" stroke-linejoin="bevel" stroke-miterlimit="10" stroke-dasharray=""/><path fill="none" stroke="rgb(0,0,0)" paint-order="fill" d="M 107.5 356.5 L 107.5 348.5 M 221.5 356.5 L 221.5 348.5 M 335.5 356.5 L 335.5 348.5 M 449.5 356.5 L 449.5 348.5 M 563.5 356.5 L 563.5 348.5" stroke-opacity="1" stroke-linejoin="bevel" stroke-miterlimit="10" stroke-dasharray=""/><path fill="none" stroke="rgb(0,0,0)" paint-order="fill" d="" stroke-opacity="1" stroke-linejoin="bevel" stroke-miterlimit="10" stroke-dasharray=""/><text fill="rgb(68,68,68)" stroke="none" font-family="helvetica" font-size="11px" font-style="normal" font-weight="normal" text-decoration="normal" x="62.66666793823242" y="371.4521484375" text-anchor="start" dominant-baseline="alphabetic" transform="matrix(1, 0, 0, 1, 0.5, 0.5)" fill-opacity="1">Historical 1980-99</text><text fill="rgb(68,68,68)" stroke="none" font-family="helvetica" font-size="11px" font-style="normal" font-weight="normal" text-decoration="normal" x="175.7583351135254" y="371.4521484375" text-anchor="start" dominant-baseline="alphabetic" transform="matrix(1, 0, 0, 1, 0.5, 0.5)" fill-opacity="1">SSP3-7.0 2020-39</text><text fill="rgb(68,68,68)" stroke="none" font-family="helvetica" font-size="11px" font-style="normal" font-weight="normal" text-decoration="normal" x="289.7583351135254" y="371.4521484375" text-anchor="start" dominant-baseline="alphabetic" transform="matrix(1, 0, 0, 1, 0.5, 0.5)" fill-opacity="1">SSP3-7.0 2040-59</text><text fill="rgb(68,68,68)" stroke="none" font-family="helvetica" font-size="11px" font-style="normal" font-weight="normal" text-decoration="normal" x="403.7583351135254" y="371.4521484375" text-anchor="start" dominant-baseline="alphabetic" transform="matrix(1, 0, 0, 1, 0.5, 0.5)" fill-opacity="1">SSP3-7.0 2060-79</text><text fill="rgb(68,68,68)" stroke="none" font-family="helvetica" font-size="11px" font-style="normal" font-weight="normal" text-decoration="normal" x="517.7583351135254" y="371.4521484375" text-anchor="start" dominant-baseline="alphabetic" transform="matrix(1, 0, 0, 1, 0.5, 0.5)" fill-opacity="1">SSP3-7.0 2080-99</text><text fill="rgb(68,68,68)" stroke="none" font-family="helvetica" font-size="13px" font-style="italic" font-weight="normal" text-decoration="normal" x="296.94166564941406" y="394.35205078125" text-anchor="start" dominant-baseline="alphabetic" transform="matrix(1, 0, 0, 1, 0.5, 0.5)" fill-opacity="1">Time Periods</text><path fill="none" stroke="rgb(0,0,0)" paint-order="fill" d="M 50.5 350.5 L 50.5 27.5" stroke-opacity="1" stroke-linejoin="bevel" stroke-miterlimit="10" stroke-dasharray=""/><path fill="none" stroke="rgb(0,0,0)" paint-order="fill" d="M 44.5 350.5 L 52.5 350.5 M 44.5 285.5 L 52.5 285.5 M 44.5 221.5 L 52.5 221.5 M 44.5 156.5 L 52.5 156.5 M 44.5 92.5 L 52.5 92.5 M 44.5 27.5 L 52.5 27.5" stroke-opacity="1" stroke-linejoin="bevel" stroke-miterlimit="10" stroke-dasharray=""/><path fill="none" stroke="rgb(0,0,0)" paint-order="fill" d="M 46.5 350.5 L 50.5 350.5 M 46.5 337.5 L 50.5 337.5 M 46.5 324.5 L 50.5 324.5 M 46.5 311.5 L 50.5 311.5 M 46.5 298.5 L 50.5 298.5 M 46.5 285.5 L 50.5 285.5 M 46.5 272.5 L 50.5 272.5 M 46.5 260.5 L 50.5 260.5 M 46.5 247.5 L 50.5 247.5 M 46.5 234.5 L 50.5 234.5 M 46.5 221.5 L 50.5 221.5 M 46.5 208.5 L 50.5 208.5 M 46.5 195.5 L 50.5 195.5 M 46.5 182.5 L 50.5 182.5 M 46.5 169.5 L 50.5 169.5 M 46.5 156.5 L 50.5 156.5 M 46.5 143.5 L 50.5 143.5 M 46.5 130.5 L 50.5 130.5 M 46.5 117.5 L 50.5 117.5 M 46.5 105.5 L 50.5 105.5 M 46.5 92.5 L 50.5 92.5 M 46.5 79.5 L 50.5 79.5 M 46.5 66.5 L 50.5 66.5 M 46.5 53.5 L 50.5 53.5 M 46.5 40.5 L 50.5 40.5 M 46.5 27.5 L 50.5 27.5" stroke-opacity="1" stroke-linejoin="bevel" stroke-miterlimit="10" stroke-dasharray=""/><text fill="rgb(68,68,68)" stroke="none" font-family="helvetica" font-size="11px" font-style="normal" font-weight="normal" text-decoration="normal" x="26.766666412353516" y="353.945068359375" text-anchor="start" dominant-baseline="alphabetic" transform="matrix(1, 0, 0, 1, 0.5, 0.5)" fill-opacity="1">10</text><text fill="rgb(68,68,68)" stroke="none" font-family="helvetica" font-size="11px" font-style="normal" font-weight="normal" text-decoration="normal" x="26.766666412353516" y="289.3450622558594" text-anchor="start" dominant-baseline="alphabetic" transform="matrix(1, 0, 0, 1, 0.5, 0.5)" fill-opacity="1">20</text><text fill="rgb(68,68,68)" stroke="none" font-family="helvetica" font-size="11px" font-style="normal" font-weight="normal" text-decoration="normal" x="26.766666412353516" y="224.7450714111328" text-anchor="start" dominant-baseline="alphabetic" transform="matrix(1, 0, 0, 1, 0.5, 0.5)" fill-opacity="1">30</text><text fill="rgb(68,68,68)" stroke="none" font-family="helvetica" font-size="11px" font-style="normal" font-weight="normal" text-decoration="normal" x="26.766666412353516" y="160.1450653076172" text-anchor="start" dominant-baseline="alphabetic" transform="matrix(1, 0, 0, 1, 0.5, 0.5)" fill-opacity="1">40</text><text fill="rgb(68,68,68)" stroke="none" font-family="helvetica" font-size="11px" font-style="normal" font-weight="normal" text-decoration="normal" x="26.766666412353516" y="95.5450668334961" text-anchor="start" dominant-baseline="alphabetic" transform="matrix(1, 0, 0, 1, 0.5, 0.5)" fill-opacity="1">50</text><text fill="rgb(68,68,68)" stroke="none" font-family="helvetica" font-size="11px" font-style="normal" font-weight="normal" text-decoration="normal" x="26.766666412353516" y="30.945068359375" text-anchor="start" dominant-baseline="alphabetic" transform="matrix(1, 0, 0, 1, 0.5, 0.5)" fill-opacity="1">60</text><text fill="rgb(68,68,68)" stroke="none" font-family="helvetica" font-size="13px" font-style="italic" font-weight="normal" text-decoration="normal" x="-55.91666793823242" y="185.62451171875" text-anchor="start" dominant-baseline="alphabetic" transform="matrix(6.123233995736766e-17, -1, 1, 6.123233995736766e-17, -169.23333358764648, 207.76666641235352)" fill-opacity="1">Return Value (Degrees C)</text><text fill="rgb(68,68,68)" stroke="none" font-family="helvetica" font-size="13px" font-style="normal" font-weight="bold" text-decoration="normal" x="50" y="19.1689453125" text-anchor="start" dominant-baseline="alphabetic" transform="matrix(1, 0, 0, 1, 0.5, 0.5)" fill-opacity="1">CESM2 Return Values (Degrees C) for 1-in-10-year Event</text></svg>