<svg version="1.1" xmlns="http://www.w3.org/2000/svg" width="650" height="400"><defs><clipPath id="WaSgePxnyXTS"><path fill="none" stroke="none" d="M 50.5 27.5 L 620.5 27.5 L 620.5 350.5 L 50.5 350.5 L 50.5 27.5"/></clipPath><clipPath id="KVzAHNWqLneK"><path fill="none" stroke="none" d="M 50.5 27.5 L 620.5 27.5 L 620.5 350.5 L 50.5 350.5 L 50.5 27.5"/></clipPath><clipPath id="HrcBbASKzKka"><path fill="none" stroke="none" d="M 50.5 27.5 L 620.5 27.5 L 620.5 350.5 L 50.5 350.5 L 50.5 27.5"/></clipPath><clipPath id="zvTnXXTKgThU"><path fill="none" stroke="none" d="M 50.5 27.5 L 620.5 27.5 L 620.5 350.5 L 50.5 350.5 L 50.5 27.5"/></clipPath><clipPath id="vqsBbuThgtBT"><path fill="none" stroke="none" d="M 50.5 27.5 L 620.5 27.5 L 620.5 350.5 L 50.5 350.5 L 50.5 27.5"/></clipPath><clipPath id="oRIafLkSpvZP"><path fill="none" stroke="none" d="M 50.5 27.5 L 620.5 27.5 L 620.5 350.5 L 50.5 350.5 L 50.5 27.5"/></clipPath><clipPath id="BXtDxwsRLRlB"><path fill="none" stroke="none" d="M 50.5 27.5 L 620.5 27.5 L 620.5 350.5 L 50.5 350.5 L 50.5 27.5"/></clipPath><clipPath id="RnMXwxfUhTJC"><path fill="none" stroke="none" d="M 50.5 27.5 L 620.5 27.5 L 620.5 350.5 L 50.5 350.5 L 50.5 27.5"/></clipPath><clipPath id="kmXhENOfDdLq"><path fill="none" stroke="none" d="M 50.5 27.5 L 620.5 27.5 L 620.5 350.5 L 50.5 350.5 L 50.5 27.5"/></clipPath><clipPath id="OTSwmKlWrWHa"><path fill="none" stroke="none" d="M 50.5 27.5 L 620.5 27.5 L 620.5 350.5 L 50.5 350.5 L 50.5 27.5"/></clipPath><clipPath id="RhcNuAeyXIaE"><path fill="none" stroke="none" d="M 50.5 27.5 L 620.5 27.5 L 620.5 350.5 L 50.5 350.5 L 50.5 27.5"/></clipPath></defs><path fill="rgb(255,255,255)" stroke="none" paint-order="stroke" d="M 0.5 0.5 L 650.5 0.5 L 650.5 400.5 L 0.5 400.5 L 0.5 0.5" fill-opacity="1"/><rect fill="#FFFFFF" stroke="none" x="50" y="27" width="570" height="323" transform="matrix(1, 0, 0, 1, 0.5, 0.5)"/><path fill="rgb(255,255,255)" stroke="none" paint-order="stroke" d="M 50.5 27.5 L 620.5 27.5 L 620.5 350.5 L 50.5 350.5 L 50.5 27.5" fill-opacity="1"/><path fill="none" stroke="rgb(229,229,229)" paint-order="fill" d="M 50.5 27.5 L 620.5 27.5 L 620.5 350.5 L 50.5 350.5 L 50.5 27.5" stroke-opacity="1" stroke-linejoin="bevel" stroke-miterlimit="10" stroke-dasharray=""/><path fill="none" stroke="rgb(0,0,0)" paint-order="fill" d="M 107.5 78.14230346679688 L 107.5 137.7318878173828" stroke-opacity="1" stroke-linejoin="bevel" stroke-miterlimit="10" stroke-dasharray="" clip-path="url(#zvTnXXTKgThU)"/><path fill="none" stroke="rgb(0,0,0)" paint-order="fill" d="M 221.5 63.83576965332031 L 221.5 118.19556427001953" stroke-opacity="1" stroke-linejoin="bevel" stroke-miterlimit="10" stroke-dasharray="" clip-path="url(#zvTnXXTKgThU)"/><path fill="none" stroke="rgb(0,0,0)" paint-order="fill" d="M 335.5 54.41666793823242 L 335.5 117.45416259765625" stroke-opacity="1" stroke-linejoin="bevel" stroke-miterlimit="10" stroke-dasharray="" clip-path="url(#zvTnXXTKgThU)"/><path fill="none" stroke="rgb(0,0,0)" paint-order="fill" d="M 449.5 56.204769134521484 L 449.5 117.87367248535156" stroke-opacity="1" stroke-linejoin="bevel" stroke-miterlimit="10" stroke-dasharray="" clip-path="url(#zvTnXXTKgThU)"/><path fill="none" stroke="rgb(0,0,0)" paint-order="fill" d="M 563.5 63.83576965332031 L 563.5 118.19556427001953" stroke-opacity="1" stroke-linejoin="bevel" stroke-miterlimit="10" stroke-dasharray="" clip-path="url(#zvTnXXTKgThU)"/><path fill="none" stroke="rgb(0,0,0)" paint-order="fill" d="M 107.5 278.0673828125 L 107.5 194.12437438964844" stroke-opacity="1" stroke-linejoin="bevel" stroke-miterlimit="10" stroke-dasharray="" clip-path="url(#vqsBbuThgtBT)"/><path fill="none" stroke="rgb(0,0,0)" paint-order="fill" d="M 221.5 250.02044677734375 L 221.5 170.97537231445312" stroke-opacity="1" stroke-linejoin="bevel" stroke-miterlimit="10" stroke-dasharray="" clip-path="url(#vqsBbuThgtBT)"/><path fill="none" stroke="rgb(0,0,0)" paint-order="fill" d="M 335.5 242.0211639404297 L 335.5 167.45603942871094" stroke-opacity="1" stroke-linejoin="bevel" stroke-miterlimit="10" stroke-dasharray="" clip-path="url(#vqsBbuThgtBT)"/><path fill="none" stroke="rgb(0,0,0)" paint-order="fill" d="M 449.5 238.19332885742188 L 449.5 166.04983520507812" stroke-opacity="1" stroke-linejoin="bevel" stroke-miterlimit="10" stroke-dasharray="" clip-path="url(#vqsBbuThgtBT)"/><path fill="none" stroke="rgb(0,0,0)" paint-order="fill" d="M 563.5 250.02044677734375 L 563.5 170.97537231445312" stroke-opacity="1" stroke-linejoin="bevel" stroke-miterlimit="10" stroke-dasharray="" clip-path="url(#vqsBbuThgtBT)"/><path fill="none" stroke="rgb(0,0,0)" paint-order="fill" d="M 84.70000457763672 278.0673828125 L 130.3000030517578 278.0673828125" stroke-opacity="1" stroke-linejoin="bevel" stroke-miterlimit="10" stroke-dasharray="" clip-path="url(#oRIafLkSpvZP)"/><path fill="none" stroke="rgb(0,0,0)" paint-order="fill" d="M 198.6999969482422 250.02044677734375 L 244.3000030517578 250.02044677734375" stroke-opacity="1" stroke-linejoin="bevel" stroke-miterlimit="10" stroke-dasharray="" clip-path="url(#oRIafLkSpvZP)"/><path fill="none" stroke="rgb(0,0,0)" paint-order="fill" d="M 312.6999816894531 242.0211639404297 L 358.3000183105469 242.0211639404297" stroke-opacity="1" stroke-linejoin="bevel" stroke-miterlimit="10" stroke-dasharray="" clip-path="url(#oRIafLkSpvZP)"/><path fill="none" stroke="rgb(0,0,0)" paint-order="fill" d="M 426.6999816894531 238.19332885742188 L 472.3000183105469 238.19332885742188" stroke-opacity="1" stroke-linejoin="bevel" stroke-miterlimit="10" stroke-dasharray="" clip-path="url(#oRIafLkSpvZP)"/><path fill="none" stroke="rgb(0,0,0)" paint-order="fill" d="M 540.7000122070312 250.02044677734375 L 586.2999877929688 250.02044677734375" stroke-opacity="1" stroke-linejoin="bevel" stroke-miterlimit="10" stroke-dasharray="" clip-path="url(#oRIafLkSpvZP)"/><path fill="none" stroke="rgb(0,0,0)" paint-order="fill" d="M 84.70000457763672 78.14230346679688 L 130.3000030517578 78.14230346679688" stroke-opacity="1" stroke-linejoin="bevel" stroke-miterlimit="10" stroke-dasharray="" clip-path="url(#BXtDxwsRLRlB)"/><path fill="none" stroke="rgb(0,0,0)" paint-order="fill" d="M 198.6999969482422 63.83576965332031 L 244.3000030517578 63.83576965332031" stroke-opacity="1" stroke-linejoin="bevel" stroke-miterlimit="10" stroke-dasharray="" clip-path="url(#BXtDxwsRLRlB)"/><path fill="none" stroke="rgb(0,0,0)" paint-order="fill" d="M 312.6999816894531 54.41666793823242 L 358.3000183105469 54.41666793823242" stroke-opacity="1" stroke-linejoin="bevel" stroke-miterlimit="10" stroke-dasharray="" clip-path="url(#BXtDxwsRLRlB)"/><path fill="none" stroke="rgb(0,0,0)" paint-order="fill" d="M 426.6999816894531 56.204769134521484 L 472.3000183105469 56.204769134521484" stroke-opacity="1" stroke-linejoin="bevel" stroke-miterlimit="10" stroke-dasharray="" clip-path="url(#BXtDxwsRLRlB)"/><path fill="none" stroke="rgb(0,0,0)" paint-order="fill" d="M 540.7000122070312 63.83576965332031 L 586.2999877929688 63.83576965332031" stroke-opacity="1" stroke-linejoin="bevel" stroke-miterlimit="10" stroke-dasharray="" clip-path="url(#BXtDxwsRLRlB)"/><path fill="rgb(255,165,0)" stroke="rgb(0,0,0)" paint-order="fill" d="M 67.5999984741211 164.13279724121094 L 147.39999389648438 164.13279724121094 L 147.39999389648438 137.7318878173828 L 67.5999984741211 137.7318878173828 L 67.5999984741211 164.13279724121094" fill-opacity="1" clip-path="url(#RnMXwxfUhTJC)" stroke-opacity="1" stroke-linejoin="bevel" stroke-miterlimit="10" stroke-dasharray=""/><path fill="rgb(255,165,0)" stroke="rgb(0,0,0)" paint-order="fill" d="M 181.60000610351562 144.3969268798828 L 261.3999938964844 144.3969268798828 L 261.3999938964844 118.19556427001953 L 181.60000610351562 118.19556427001953 L 181.60000610351562 144.3969268798828" fill-opacity="1" clip-path="url(#RnMXwxfUhTJC)" stroke-opacity="1" stroke-linejoin="bevel" stroke-miterlimit="10" stroke-dasharray=""/><path fill="rgb(255,165,0)" stroke="rgb(0,0,0)" paint-order="fill" d="M 295.6000061035156 143.13734436035156 L 375.3999938964844 143.13734436035156 L 375.3999938964844 117.45416259765625 L 295.6000061035156 117.45416259765625 L 295.6000061035156 143.13734436035156" fill-opacity="1" clip-path="url(#RnMXwxfUhTJC)" stroke-opacity="1" stroke-linejoin="bevel" stroke-miterlimit="10" stroke-dasharray=""/><path fill="rgb(255,165,0)" stroke="rgb(0,0,0)" paint-order="fill" d="M 409.6000061035156 143.2285919189453 L 489.3999938964844 143.2285919189453 L 489.3999938964844 117.87367248535156 L 409.6000061035156 117.87367248535156 L 409.6000061035156 143.2285919189453" fill-opacity="1" clip-path="url(#RnMXwxfUhTJC)" stroke-opacity="1" stroke-linejoin="bevel" stroke-miterlimit="10" stroke-dasharray=""/><path fill="rgb(255,165,0)" stroke="rgb(0,0,0)" paint-order="fill" d="M 523.5999755859375 144.3969268798828 L 603.4000244140625 144.3969268798828 L 603.4000244140625 118.19556427001953 L 523.5999755859375 118.19556427001953 L 523.5999755859375 144.3969268798828" fill-opacity="1" clip-path="url(#RnMXwxfUhTJC)" stroke-opacity="1" stroke-linejoin="bevel" stroke-miterlimit="10" stroke-dasharray=""/><path fill="rgb(255,165,0)" stroke="rgb(0,0,0)" paint-order="fill" d="M 67.5999984741211 194.12437438964844 L 147.39999389648438 194.12437438964844 L 147.39999389648438 164.13279724121094 L 67.5999984741211 164.13279724121094 L 67.5999984741211 194.12437438964844" fill-opacity="1" clip-path="url(#kmXhENOfDdLq)" stroke-opacity="1" stroke-linejoin="bevel" stroke-miterlimit="10" stroke-dasharray=""/><path fill="rgb(255,165,0)" stroke="rgb(0,0,0)" paint-order="fill" d="M 181.60000610351562 170.97537231445312 L 261.3999938964844 170.97537231445312 L 261.3999938964844 144.3969268798828 L 181.60000610351562 144.3969268798828 L 181.60000610351562 170.97537231445312" fill-opacity="1" clip-path="url(#kmXhENOfDdLq)" stroke-opacity="1" stroke-linejoin="bevel" stroke-miterlimit="10" stroke-dasharray=""/><path fill="rgb(255,165,0)" stroke="rgb(0,0,0)" paint-order="fill" d="M 295.6000061035156 167.45603942871094 L 375.3999938964844 167.45603942871094 L 375.3999938964844 143.13734436035156 L 295.6000061035156 143.13734436035156 L 295.6000061035156 167.45603942871094" fill-opacity="1" clip-path="url(#kmXhENOfDdLq)" stroke-opacity="1" stroke-linejoin="bevel" stroke-miterlimit="10" stroke-dasharray=""/><path fill="rgb(255,165,0)" stroke="rgb(0,0,0)" paint-order="fill" d="M 409.6000061035156 166.04983520507812 L 489.3999938964844 166.04983520507812 L 489.3999938964844 143.2285919189453 L 409.6000061035156 143.2285919189453 L 409.6000061035156 166.04983520507812" fill-opacity="1" clip-path="url(#kmXhENOfDdLq)" stroke-opacity="1" stroke-linejoin="bevel" stroke-miterlimit="10" stroke-dasharray=""/><path fill="rgb(255,165,0)" stroke="rgb(0,0,0)" paint-order="fill" d="M 523.5999755859375 170.97537231445312 L 603.4000244140625 170.97537231445312 L 603.4000244140625 144.3969268798828 L 523.5999755859375 144.3969268798828 L 523.5999755859375 170.97537231445312" fill-opacity="1" clip-path="url(#kmXhENOfDdLq)" stroke-opacity="1" stroke-linejoin="bevel" stroke-miterlimit="10" stroke-dasharray=""/><path fill="none" stroke="rgb(0,0,0)" paint-order="fill" d="M 50.5 350.5 L 620.5 350.5" stroke-opacity="1" stroke-linejoin="bevel" stroke-miterlimit="10" stroke-dasharray=""/><path fill="none" stroke="rgb(0,0,0)" paint-order="fill" d="M 107.5 356.5 L 107.5 348.5 M 221.5 356.5 L 221.5 348.5 M 335.5 356.5 L 335.5 348.5 M 449.5 356.5 L 449.5 348.5 M 563.5 356.5 L 563.5 348.5" stroke-opacity="1" stroke-linejoin="bevel" stroke-miterlimit="10" stroke-dasharray=""/><path fill="none" stroke="rgb(0,0,0)" paint-order="fill" d="" stroke-opacity="1" stroke-linejoin="bevel" stroke-miterlimit="10" stroke-dasharray=""/><text fill="rgb(68,68,68)" stroke="none" font-family="helvetica" font-size="11px" font-style="normal" font-weight="normal" text-decoration="normal" x="62.66666793823242" y="371.4521484375" text-anchor="start" dominant-baseline="alphabetic" transform="matrix(1, 0, 0, 1, 0.5, 0.5)" fill-opacity="1">Historical 1980-99</text><text fill="rgb(68,68,68)" stroke="none" font-family="helvetica" font-size="11px" font-style="normal" font-weight="normal" text-decoration="normal" x="175.7583351135254" y="371.4521484375" text-anchor="start" dominant-baseline="alphabetic" transform="matrix(1, 0, 0, 1, 0.5, 0.5)" fill-opacity="1">SSP3-7.0 2020-39</text><text fill="rgb(68,68,68)" stroke="none" font-family="helvetica" font-size="11px" font-style="normal" font-weight="normal" text-decoration="normal" x="289.7583351135254" y="371.4521484375" text-anchor="start" dominant-baseline="alphabetic" transform="matrix(1, 0, 0, 1, 0.5, 0.5)" fill-opacity="1">SSP3-7.0 2040-59</text><text fill="rgb(68,68,68)" stroke="none" font-family="helvetica" font-size="11px" font-style="normal" font-weight="normal" text-decoration="normal" x="403.7583351135254" y="371.4521484375" text-anchor="start" dominant-baseline="alphabetic" transform="matrix(1, 0, 0, 1, 0.5, 0.5)" fill-opacity="1">SSP3-7.0 2060-79</text><text fill="rgb(68,68,68)" stroke="none" font-family="helvetica" font-size="11px" font-style="normal" font-weight="normal" text-decoration="normal" x="517.7583351135254" y="371.4521484375" text-anchor="start" dominant-baseline="alphabetic" transform="matrix(1, 0, 0, 1, 0.5, 0.5)" fill-opacity="1">SSP3-7.0 2080-99</text><text fill="rgb(68,68,68)" stroke="none" font-family="helvetica" font-size="13px" font-style="italic" font-weight="normal" text-decoration="normal" x="290.20000076293945" y="394.35205078125" text-anchor="start" dominant-baseline="alphabetic" transform="matrix(1, 0, 0, 1, 0.5, 0.5)" fill-opacity="1">Climate Models</text><path fill="none" stroke="rgb(0,0,0)" paint-order="fill" d="M 50.5 350.5 L 50.5 27.5" stroke-opacity="1" stroke-linejoin="bevel" stroke-miterlimit="10" stroke-dasharray=""/><path fill="none" stroke="rgb(0,0,0)" paint-order="fill" d="M 44.5 305.5 L 52.5 305.5 M 44.5 234.5 L 52.5 234.5 M 44.5 163.5 L 52.5 163.5 M 44.5 93.5 L 52.5 93.5" stroke-opacity="1" stroke-linejoin="bevel" stroke-miterlimit="10" stroke-dasharray=""/><path fill="none" stroke="rgb(0,0,0)" paint-order="fill" d="M 46.5 319.5 L 50.5 319.5 M 46.5 333.5 L 50.5 333.5 M 46.5 348.5 L 50.5 348.5 M 46.5 305.5 L 50.5 305.5 M 46.5 291.5 L 50.5 291.5 M 46.5 277.5 L 50.5 277.5 M 46.5 263.5 L 50.5 263.5 M 46.5 248.5 L 50.5 248.5 M 46.5 234.5 L 50.5 234.5 M 46.5 220.5 L 50.5 220.5 M 46.5 206.5 L 50.5 206.5 M 46.5 192.5 L 50.5 192.5 M 46.5 178.5 L 50.5 178.5 M 46.5 163.5 L 50.5 163.5 M 46.5 149.5 L 50.5 149.5 M 46.5 135.5 L 50.5 135.5 M 46.5 121.5 L 50.5 121.5 M 46.5 107.5 L 50.5 107.5 M 46.5 93.5 L 50.5 93.5 M 46.5 78.5 L 50.5 78.5 M 46.5 64.5 L 50.5 64.5 M 46.5 50.5 L 50.5 50.5 M 46.5 36.5 L 50.5 36.5" stroke-opacity="1" stroke-linejoin="bevel" stroke-miterlimit="10" stroke-dasharray=""/><text fill="rgb(68,68,68)" stroke="none" font-family="helvetica" font-size="11px" font-style="normal" font-weight="normal" text-decoration="normal" x="26.766666412353516" y="309.0909729003906" text-anchor="start" dominant-baseline="alphabetic" transform="matrix(1, 0, 0, 1, 0.5, 0.5)" fill-opacity="1">20</text><text fill="rgb(68,68,68)" stroke="none" font-family="helvetica" font-size="11px" font-style="normal" font-weight="normal" text-decoration="normal" x="26.766666412353516" y="238.25253295898438" text-anchor="start" dominant-baseline="alphabetic" transform="matrix(1, 0, 0, 1, 0.5, 0.5)" fill-opacity="1">30</text><text fill="rgb(68,68,68)" stroke="none" font-family="helvetica" font-size="11px" font-style="normal" font-weight="normal" text-decoration="normal" x="26.766666412353516" y="167.41409301757812" text-anchor="start" dominant-baseline="alphabetic" transform="matrix(1, 0, 0, 1, 0.5, 0.5)" fill-opacity="1">40</text><text fill="rgb(68,68,68)" stroke="none" font-family="helvetica" font-size="11px" font-style="normal" font-weight="normal" text-decoration="normal" x="26.766666412353516" y="96.57565307617188" text-anchor="start" dominant-baseline="alphabetic" transform="matrix(1, 0, 0, 1, 0.5, 0.5)" fill-opacity="1">50</text><text fill="rgb(68,68,68)" stroke="none" font-family="helvetica" font-size="13px" font-style="italic" font-weight="normal" text-decoration="normal" x="-59.16666793823242" y="185.62451171875" text-anchor="start" dominant-baseline="alphabetic" transform="matrix(6.123233995736766e-17, -1, 1, 6.123233995736766e-17, -169.23333358764648, 207.76666641235352)" fill-opacity="1">Return Values (Degrees C)</text><text fill="rgb(68,68,68)" stroke="none" font-family="helvetica" font-size="13px" font-style="normal" font-weight="bold" text-decoration="normal" x="50" y="19.1689453125" text-anchor="start" dominant-baseline="alphabetic" transform="matrix(1, 0, 0, 1, 0.5, 0.5)" fill-opacity="1">CESM2 Return Values for 1-in-10-year Event</text></svg>