<svg version="1.1" xmlns="http://www.w3.org/2000/svg" width="650" height="400"><defs><clipPath id="CXbTEhcsGnQh"><path fill="none" stroke="none" d="M 50.5 27.5 L 620.5 27.5 L 620.5 350.5 L 50.5 350.5 L 50.5 27.5"/></clipPath><clipPath id="FHVETpRvyiaQ"><path fill="none" stroke="none" d="M 50.5 27.5 L 620.5 27.5 L 620.5 350.5 L 50.5 350.5 L 50.5 27.5"/></clipPath><clipPath id="TusLegAhTVTl"><path fill="none" stroke="none" d="M 50.5 27.5 L 620.5 27.5 L 620.5 350.5 L 50.5 350.5 L 50.5 27.5"/></clipPath><clipPath id="qyWRnogRLoRH"><path fill="none" stroke="none" d="M 50.5 27.5 L 620.5 27.5 L 620.5 350.5 L 50.5 350.5 L 50.5 27.5"/></clipPath><clipPath id="GwmCQrNmEzfg"><path fill="none" stroke="none" d="M 50.5 27.5 L 620.5 27.5 L 620.5 350.5 L 50.5 350.5 L 50.5 27.5"/></clipPath><clipPath id="VzzLsbWdtLOG"><path fill="none" stroke="none" d="M 50.5 27.5 L 620.5 27.5 L 620.5 350.5 L 50.5 350.5 L 50.5 27.5"/></clipPath><clipPath id="TMsSVnZsFyNv"><path fill="none" stroke="none" d="M 50.5 27.5 L 620.5 27.5 L 620.5 350.5 L 50.5 350.5 L 50.5 27.5"/></clipPath><clipPath id="ZTyeoMZAxakL"><path fill="none" stroke="none" d="M 50.5 27.5 L 620.5 27.5 L 620.5 350.5 L 50.5 350.5 L 50.5 27.5"/></clipPath><clipPath id="PMXxqgzfNDEa"><path fill="none" stroke="none" d="M 50.5 27.5 L 620.5 27.5 L 620.5 350.5 L 50.5 350.5 L 50.5 27.5"/></clipPath><clipPath id="fXxzCalQlRco"><path fill="none" stroke="none" d="M 50.5 27.5 L 620.5 27.5 L 620.5 350.5 L 50.5 350.5 L 50.5 27.5"/></clipPath><clipPath id="nBtPEwxaFZaR"><path fill="none" stroke="none" d="M 50.5 27.5 L 620.5 27.5 L 620.5 350.5 L 50.5 350.5 L 50.5 27.5"/></clipPath></defs><path fill="rgb(255,255,255)" stroke="none" paint-order="stroke" d="M 0.5 0.5 L 650.5 0.5 L 650.5 400.5 L 0.5 400.5 L 0.5 0.5" fill-opacity="1"/><rect fill="#FFFFFF" stroke="none" x="50" y="27" width="570" height="323" transform="matrix(1, 0, 0, 1, 0.5, 0.5)"/><path fill="rgb(255,255,255)" stroke="none" paint-order="stroke" d="M 50.5 27.5 L 620.5 27.5 L 620.5 350.5 L 50.5 350.5 L 50.5 27.5" fill-opacity="1"/><path fill="none" stroke="rgb(229,229,229)" paint-order="fill" d="M 50.5 27.5 L 620.5 27.5 L 620.5 350.5 L 50.5 350.5 L 50.5 27.5" stroke-opacity="1" stroke-linejoin="bevel" stroke-miterlimit="10" stroke-dasharray=""/><path fill="none" stroke="rgb(0,0,0)" paint-order="fill" d="M 107.5 90.65409088134766 L 107.5 133.7782745361328" stroke-opacity="1" stroke-linejoin="bevel" stroke-miterlimit="10" stroke-dasharray="" clip-path="url(#qyWRnogRLoRH)"/><path fill="none" stroke="rgb(0,0,0)" paint-order="fill" d="M 221.5 78.05243682861328 L 221.5 120.97236633300781" stroke-opacity="1" stroke-linejoin="bevel" stroke-miterlimit="10" stroke-dasharray="" clip-path="url(#qyWRnogRLoRH)"/><path fill="none" stroke="rgb(0,0,0)" paint-order="fill" d="M 335.5 71.55648803710938 L 335.5 119.86466979980469" stroke-opacity="1" stroke-linejoin="bevel" stroke-miterlimit="10" stroke-dasharray="" clip-path="url(#qyWRnogRLoRH)"/><path fill="none" stroke="rgb(0,0,0)" paint-order="fill" d="M 449.5 68.51553344726562 L 449.5 112.20635223388672" stroke-opacity="1" stroke-linejoin="bevel" stroke-miterlimit="10" stroke-dasharray="" clip-path="url(#qyWRnogRLoRH)"/><path fill="none" stroke="rgb(0,0,0)" paint-order="fill" d="M 563.5 54.41666793823242 L 563.5 102.42015838623047" stroke-opacity="1" stroke-linejoin="bevel" stroke-miterlimit="10" stroke-dasharray="" clip-path="url(#qyWRnogRLoRH)"/><path fill="none" stroke="rgb(0,0,0)" paint-order="fill" d="M 107.5 268.4414367675781 L 107.5 187.79800415039062" stroke-opacity="1" stroke-linejoin="bevel" stroke-miterlimit="10" stroke-dasharray="" clip-path="url(#GwmCQrNmEzfg)"/><path fill="none" stroke="rgb(0,0,0)" paint-order="fill" d="M 221.5 253.8467254638672 L 221.5 174.26806640625" stroke-opacity="1" stroke-linejoin="bevel" stroke-miterlimit="10" stroke-dasharray="" clip-path="url(#GwmCQrNmEzfg)"/><path fill="none" stroke="rgb(0,0,0)" paint-order="fill" d="M 335.5 247.46018981933594 L 335.5 170.994140625" stroke-opacity="1" stroke-linejoin="bevel" stroke-miterlimit="10" stroke-dasharray="" clip-path="url(#GwmCQrNmEzfg)"/><path fill="none" stroke="rgb(0,0,0)" paint-order="fill" d="M 449.5 234.6186065673828 L 449.5 161.23422241210938" stroke-opacity="1" stroke-linejoin="bevel" stroke-miterlimit="10" stroke-dasharray="" clip-path="url(#GwmCQrNmEzfg)"/><path fill="none" stroke="rgb(0,0,0)" paint-order="fill" d="M 563.5 225.16725158691406 L 563.5 151.5310821533203" stroke-opacity="1" stroke-linejoin="bevel" stroke-miterlimit="10" stroke-dasharray="" clip-path="url(#GwmCQrNmEzfg)"/><path fill="none" stroke="rgb(0,0,0)" paint-order="fill" d="M 84.70000457763672 268.4414367675781 L 130.3000030517578 268.4414367675781" stroke-opacity="1" stroke-linejoin="bevel" stroke-miterlimit="10" stroke-dasharray="" clip-path="url(#VzzLsbWdtLOG)"/><path fill="none" stroke="rgb(0,0,0)" paint-order="fill" d="M 198.6999969482422 253.8467254638672 L 244.3000030517578 253.8467254638672" stroke-opacity="1" stroke-linejoin="bevel" stroke-miterlimit="10" stroke-dasharray="" clip-path="url(#VzzLsbWdtLOG)"/><path fill="none" stroke="rgb(0,0,0)" paint-order="fill" d="M 312.6999816894531 247.46018981933594 L 358.3000183105469 247.46018981933594" stroke-opacity="1" stroke-linejoin="bevel" stroke-miterlimit="10" stroke-dasharray="" clip-path="url(#VzzLsbWdtLOG)"/><path fill="none" stroke="rgb(0,0,0)" paint-order="fill" d="M 426.6999816894531 234.6186065673828 L 472.3000183105469 234.6186065673828" stroke-opacity="1" stroke-linejoin="bevel" stroke-miterlimit="10" stroke-dasharray="" clip-path="url(#VzzLsbWdtLOG)"/><path fill="none" stroke="rgb(0,0,0)" paint-order="fill" d="M 540.7000122070312 225.16725158691406 L 586.2999877929688 225.16725158691406" stroke-opacity="1" stroke-linejoin="bevel" stroke-miterlimit="10" stroke-dasharray="" clip-path="url(#VzzLsbWdtLOG)"/><path fill="none" stroke="rgb(0,0,0)" paint-order="fill" d="M 84.70000457763672 90.65409088134766 L 130.3000030517578 90.65409088134766" stroke-opacity="1" stroke-linejoin="bevel" stroke-miterlimit="10" stroke-dasharray="" clip-path="url(#TMsSVnZsFyNv)"/><path fill="none" stroke="rgb(0,0,0)" paint-order="fill" d="M 198.6999969482422 78.05243682861328 L 244.3000030517578 78.05243682861328" stroke-opacity="1" stroke-linejoin="bevel" stroke-miterlimit="10" stroke-dasharray="" clip-path="url(#TMsSVnZsFyNv)"/><path fill="none" stroke="rgb(0,0,0)" paint-order="fill" d="M 312.6999816894531 71.55648803710938 L 358.3000183105469 71.55648803710938" stroke-opacity="1" stroke-linejoin="bevel" stroke-miterlimit="10" stroke-dasharray="" clip-path="url(#TMsSVnZsFyNv)"/><path fill="none" stroke="rgb(0,0,0)" paint-order="fill" d="M 426.6999816894531 68.51553344726562 L 472.3000183105469 68.51553344726562" stroke-opacity="1" stroke-linejoin="bevel" stroke-miterlimit="10" stroke-dasharray="" clip-path="url(#TMsSVnZsFyNv)"/><path fill="none" stroke="rgb(0,0,0)" paint-order="fill" d="M 540.7000122070312 54.41666793823242 L 586.2999877929688 54.41666793823242" stroke-opacity="1" stroke-linejoin="bevel" stroke-miterlimit="10" stroke-dasharray="" clip-path="url(#TMsSVnZsFyNv)"/><path fill="rgb(255,165,0)" stroke="rgb(0,0,0)" paint-order="fill" d="M 67.5999984741211 156.5388641357422 L 147.39999389648438 156.5388641357422 L 147.39999389648438 133.7782745361328 L 67.5999984741211 133.7782745361328 L 67.5999984741211 156.5388641357422" fill-opacity="1" clip-path="url(#ZTyeoMZAxakL)" stroke-opacity="1" stroke-linejoin="bevel" stroke-miterlimit="10" stroke-dasharray=""/><path fill="rgb(255,165,0)" stroke="rgb(0,0,0)" paint-order="fill" d="M 181.60000610351562 143.40269470214844 L 261.3999938964844 143.40269470214844 L 261.3999938964844 120.97236633300781 L 181.60000610351562 120.97236633300781 L 181.60000610351562 143.40269470214844" fill-opacity="1" clip-path="url(#ZTyeoMZAxakL)" stroke-opacity="1" stroke-linejoin="bevel" stroke-miterlimit="10" stroke-dasharray=""/><path fill="rgb(255,165,0)" stroke="rgb(0,0,0)" paint-order="fill" d="M 295.6000061035156 142.17379760742188 L 375.3999938964844 142.17379760742188 L 375.3999938964844 119.86466979980469 L 295.6000061035156 119.86466979980469 L 295.6000061035156 142.17379760742188" fill-opacity="1" clip-path="url(#ZTyeoMZAxakL)" stroke-opacity="1" stroke-linejoin="bevel" stroke-miterlimit="10" stroke-dasharray=""/><path fill="rgb(255,165,0)" stroke="rgb(0,0,0)" paint-order="fill" d="M 409.6000061035156 133.8242950439453 L 489.3999938964844 133.8242950439453 L 489.3999938964844 112.20635223388672 L 409.6000061035156 112.20635223388672 L 409.6000061035156 133.8242950439453" fill-opacity="1" clip-path="url(#ZTyeoMZAxakL)" stroke-opacity="1" stroke-linejoin="bevel" stroke-miterlimit="10" stroke-dasharray=""/><path fill="rgb(255,165,0)" stroke="rgb(0,0,0)" paint-order="fill" d="M 523.5999755859375 124.17694091796875 L 603.4000244140625 124.17694091796875 L 603.4000244140625 102.42015838623047 L 523.5999755859375 102.42015838623047 L 523.5999755859375 124.17694091796875" fill-opacity="1" clip-path="url(#ZTyeoMZAxakL)" stroke-opacity="1" stroke-linejoin="bevel" stroke-miterlimit="10" stroke-dasharray=""/><path fill="rgb(255,165,0)" stroke="rgb(0,0,0)" paint-order="fill" d="M 67.5999984741211 187.79800415039062 L 147.39999389648438 187.79800415039062 L 147.39999389648438 156.5388641357422 L 67.5999984741211 156.5388641357422 L 67.5999984741211 187.79800415039062" fill-opacity="1" clip-path="url(#PMXxqgzfNDEa)" stroke-opacity="1" stroke-linejoin="bevel" stroke-miterlimit="10" stroke-dasharray=""/><path fill="rgb(255,165,0)" stroke="rgb(0,0,0)" paint-order="fill" d="M 181.60000610351562 174.26806640625 L 261.3999938964844 174.26806640625 L 261.3999938964844 143.40269470214844 L 181.60000610351562 143.40269470214844 L 181.60000610351562 174.26806640625" fill-opacity="1" clip-path="url(#PMXxqgzfNDEa)" stroke-opacity="1" stroke-linejoin="bevel" stroke-miterlimit="10" stroke-dasharray=""/><path fill="rgb(255,165,0)" stroke="rgb(0,0,0)" paint-order="fill" d="M 295.6000061035156 170.994140625 L 375.3999938964844 170.994140625 L 375.3999938964844 142.17379760742188 L 295.6000061035156 142.17379760742188 L 295.6000061035156 170.994140625" fill-opacity="1" clip-path="url(#PMXxqgzfNDEa)" stroke-opacity="1" stroke-linejoin="bevel" stroke-miterlimit="10" stroke-dasharray=""/><path fill="rgb(255,165,0)" stroke="rgb(0,0,0)" paint-order="fill" d="M 409.6000061035156 161.23422241210938 L 489.3999938964844 161.23422241210938 L 489.3999938964844 133.8242950439453 L 409.6000061035156 133.8242950439453 L 409.6000061035156 161.23422241210938" fill-opacity="1" clip-path="url(#PMXxqgzfNDEa)" stroke-opacity="1" stroke-linejoin="bevel" stroke-miterlimit="10" stroke-dasharray=""/><path fill="rgb(255,165,0)" stroke="rgb(0,0,0)" paint-order="fill" d="M 523.5999755859375 151.5310821533203 L 603.4000244140625 151.5310821533203 L 603.4000244140625 124.17694091796875 L 523.5999755859375 124.17694091796875 L 523.5999755859375 151.5310821533203" fill-opacity="1" clip-path="url(#PMXxqgzfNDEa)" stroke-opacity="1" stroke-linejoin="bevel" stroke-miterlimit="10" stroke-dasharray=""/><path fill="none" stroke="rgb(0,0,0)" paint-order="fill" d="M 50.5 350.5 L 620.5 350.5" stroke-opacity="1" stroke-linejoin="bevel" stroke-miterlimit="10" stroke-dasharray=""/><path fill="none" stroke="rgb(0,0,0)" paint-order="fill" d="M 107.5 356.5 L 107.5 348.5 M 221.5 356.5 L 221.5 348.5 M 335.5 356.5 L 335.5 348.5 M 449.5 356.5 L 449.5 348.5 M 563.5 356.5 L 563.5 348.5" stroke-opacity="1" stroke-linejoin="bevel" stroke-miterlimit="10" stroke-dasharray=""/><path fill="none" stroke="rgb(0,0,0)" paint-order="fill" d="" stroke-opacity="1" stroke-linejoin="bevel" stroke-miterlimit="10" stroke-dasharray=""/><text fill="rgb(68,68,68)" stroke="none" font-family="helvetica" font-size="11px" font-style="normal" font-weight="normal" text-decoration="normal" x="62.66666793823242" y="371.4521484375" text-anchor="start" dominant-baseline="alphabetic" transform="matrix(1, 0, 0, 1, 0.5, 0.5)" fill-opacity="1">Historical 1980-99</text><text fill="rgb(68,68,68)" stroke="none" font-family="helvetica" font-size="11px" font-style="normal" font-weight="normal" text-decoration="normal" x="175.7583351135254" y="371.4521484375" text-anchor="start" dominant-baseline="alphabetic" transform="matrix(1, 0, 0, 1, 0.5, 0.5)" fill-opacity="1">SSP3-7.0 2020-39</text><text fill="rgb(68,68,68)" stroke="none" font-family="helvetica" font-size="11px" font-style="normal" font-weight="normal" text-decoration="normal" x="289.7583351135254" y="371.4521484375" text-anchor="start" dominant-baseline="alphabetic" transform="matrix(1, 0, 0, 1, 0.5, 0.5)" fill-opacity="1">SSP3-7.0 2040-59</text><text fill="rgb(68,68,68)" stroke="none" font-family="helvetica" font-size="11px" font-style="normal" font-weight="normal" text-decoration="normal" x="403.7583351135254" y="371.4521484375" text-anchor="start" dominant-baseline="alphabetic" transform="matrix(1, 0, 0, 1, 0.5, 0.5)" fill-opacity="1">SSP3-7.0 2060-79</text><text fill="rgb(68,68,68)" stroke="none" font-family="helvetica" font-size="11px" font-style="normal" font-weight="normal" text-decoration="normal" x="517.7583351135254" y="371.4521484375" text-anchor="start" dominant-baseline="alphabetic" transform="matrix(1, 0, 0, 1, 0.5, 0.5)" fill-opacity="1">SSP3-7.0 2080-99</text><text fill="rgb(68,68,68)" stroke="none" font-family="helvetica" font-size="13px" font-style="italic" font-weight="normal" text-decoration="normal" x="290.20000076293945" y="394.35205078125" text-anchor="start" dominant-baseline="alphabetic" transform="matrix(1, 0, 0, 1, 0.5, 0.5)" fill-opacity="1">Climate Models</text><path fill="none" stroke="rgb(0,0,0)" paint-order="fill" d="M 50.5 350.5 L 50.5 27.5" stroke-opacity="1" stroke-linejoin="bevel" stroke-miterlimit="10" stroke-dasharray=""/><path fill="none" stroke="rgb(0,0,0)" paint-order="fill" d="M 44.5 338.5 L 52.5 338.5 M 44.5 272.5 L 52.5 272.5 M 44.5 206.5 L 52.5 206.5 M 44.5 141.5 L 52.5 141.5 M 44.5 75.5 L 52.5 75.5" stroke-opacity="1" stroke-linejoin="bevel" stroke-miterlimit="10" stroke-dasharray=""/><path fill="none" stroke="rgb(0,0,0)" paint-order="fill" d="M 46.5 338.5 L 50.5 338.5 M 46.5 324.5 L 50.5 324.5 M 46.5 311.5 L 50.5 311.5 M 46.5 298.5 L 50.5 298.5 M 46.5 285.5 L 50.5 285.5 M 46.5 272.5 L 50.5 272.5 M 46.5 259.5 L 50.5 259.5 M 46.5 246.5 L 50.5 246.5 M 46.5 233.5 L 50.5 233.5 M 46.5 220.5 L 50.5 220.5 M 46.5 206.5 L 50.5 206.5 M 46.5 193.5 L 50.5 193.5 M 46.5 180.5 L 50.5 180.5 M 46.5 167.5 L 50.5 167.5 M 46.5 154.5 L 50.5 154.5 M 46.5 141.5 L 50.5 141.5 M 46.5 128.5 L 50.5 128.5 M 46.5 115.5 L 50.5 115.5 M 46.5 102.5 L 50.5 102.5 M 46.5 88.5 L 50.5 88.5 M 46.5 75.5 L 50.5 75.5 M 46.5 62.5 L 50.5 62.5 M 46.5 49.5 L 50.5 49.5 M 46.5 36.5 L 50.5 36.5" stroke-opacity="1" stroke-linejoin="bevel" stroke-miterlimit="10" stroke-dasharray=""/><text fill="rgb(68,68,68)" stroke="none" font-family="helvetica" font-size="11px" font-style="normal" font-weight="normal" text-decoration="normal" x="26.766666412353516" y="341.5023498535156" text-anchor="start" dominant-baseline="alphabetic" transform="matrix(1, 0, 0, 1, 0.5, 0.5)" fill-opacity="1">10</text><text fill="rgb(68,68,68)" stroke="none" font-family="helvetica" font-size="11px" font-style="normal" font-weight="normal" text-decoration="normal" x="26.766666412353516" y="275.9503173828125" text-anchor="start" dominant-baseline="alphabetic" transform="matrix(1, 0, 0, 1, 0.5, 0.5)" fill-opacity="1">20</text><text fill="rgb(68,68,68)" stroke="none" font-family="helvetica" font-size="11px" font-style="normal" font-weight="normal" text-decoration="normal" x="26.766666412353516" y="210.39830017089844" text-anchor="start" dominant-baseline="alphabetic" transform="matrix(1, 0, 0, 1, 0.5, 0.5)" fill-opacity="1">30</text><text fill="rgb(68,68,68)" stroke="none" font-family="helvetica" font-size="11px" font-style="normal" font-weight="normal" text-decoration="normal" x="26.766666412353516" y="144.8462677001953" text-anchor="start" dominant-baseline="alphabetic" transform="matrix(1, 0, 0, 1, 0.5, 0.5)" fill-opacity="1">40</text><text fill="rgb(68,68,68)" stroke="none" font-family="helvetica" font-size="11px" font-style="normal" font-weight="normal" text-decoration="normal" x="26.766666412353516" y="79.29423522949219" text-anchor="start" dominant-baseline="alphabetic" transform="matrix(1, 0, 0, 1, 0.5, 0.5)" fill-opacity="1">50</text><text fill="rgb(68,68,68)" stroke="none" font-family="helvetica" font-size="13px" font-style="italic" font-weight="normal" text-decoration="normal" x="-59.16666793823242" y="185.62451171875" text-anchor="start" dominant-baseline="alphabetic" transform="matrix(6.123233995736766e-17, -1, 1, 6.123233995736766e-17, -169.23333358764648, 207.76666641235352)" fill-opacity="1">Return Values (Degrees C)</text><text fill="rgb(68,68,68)" stroke="none" font-family="helvetica" font-size="13px" font-style="normal" font-weight="bold" text-decoration="normal" x="50" y="19.1689453125" text-anchor="start" dominant-baseline="alphabetic" transform="matrix(1, 0, 0, 1, 0.5, 0.5)" fill-opacity="1">CNRM-ESM2-1 Return Values for 1-in-10-year Event</text></svg>