<svg version="1.1" xmlns="http://www.w3.org/2000/svg" width="650" height="400"><defs><clipPath id="GUKtDruTPeZi"><path fill="none" stroke="none" d="M 50.5 27.5 L 620.5 27.5 L 620.5 350.5 L 50.5 350.5 L 50.5 27.5"/></clipPath><clipPath id="ZEFWUXKfRaPO"><path fill="none" stroke="none" d="M 50.5 27.5 L 620.5 27.5 L 620.5 350.5 L 50.5 350.5 L 50.5 27.5"/></clipPath><clipPath id="lpeFTlWESQbp"><path fill="none" stroke="none" d="M 50.5 27.5 L 620.5 27.5 L 620.5 350.5 L 50.5 350.5 L 50.5 27.5"/></clipPath><clipPath id="wVQrpQLUEJmG"><path fill="none" stroke="none" d="M 50.5 27.5 L 620.5 27.5 L 620.5 350.5 L 50.5 350.5 L 50.5 27.5"/></clipPath><clipPath id="OZgQkLENODPy"><path fill="none" stroke="none" d="M 50.5 27.5 L 620.5 27.5 L 620.5 350.5 L 50.5 350.5 L 50.5 27.5"/></clipPath><clipPath id="qBJsKVwPFbRX"><path fill="none" stroke="none" d="M 50.5 27.5 L 620.5 27.5 L 620.5 350.5 L 50.5 350.5 L 50.5 27.5"/></clipPath><clipPath id="cNVTyCDcsMuH"><path fill="none" stroke="none" d="M 50.5 27.5 L 620.5 27.5 L 620.5 350.5 L 50.5 350.5 L 50.5 27.5"/></clipPath><clipPath id="CSWJzOIESSBd"><path fill="none" stroke="none" d="M 50.5 27.5 L 620.5 27.5 L 620.5 350.5 L 50.5 350.5 L 50.5 27.5"/></clipPath><clipPath id="wCEAGtRAxqGL"><path fill="none" stroke="none" d="M 50.5 27.5 L 620.5 27.5 L 620.5 350.5 L 50.5 350.5 L 50.5 27.5"/></clipPath><clipPath id="NTMGJXunDate"><path fill="none" stroke="none" d="M 50.5 27.5 L 620.5 27.5 L 620.5 350.5 L 50.5 350.5 L 50.5 27.5"/></clipPath><clipPath id="AylHnOzDwNXI"><path fill="none" stroke="none" d="M 50.5 27.5 L 620.5 27.5 L 620.5 350.5 L 50.5 350.5 L 50.5 27.5"/></clipPath></defs><path fill="rgb(255,255,255)" stroke="none" paint-order="stroke" d="M 0.5 0.5 L 650.5 0.5 L 650.5 400.5 L 0.5 400.5 L 0.5 0.5" fill-opacity="1"/><rect fill="#FFFFFF" stroke="none" x="50" y="27" width="570" height="323" transform="matrix(1, 0, 0, 1, 0.5, 0.5)"/><path fill="rgb(255,255,255)" stroke="none" paint-order="stroke" d="M 50.5 27.5 L 620.5 27.5 L 620.5 350.5 L 50.5 350.5 L 50.5 27.5" fill-opacity="1"/><path fill="none" stroke="rgb(229,229,229)" paint-order="fill" d="M 50.5 27.5 L 620.5 27.5 L 620.5 350.5 L 50.5 350.5 L 50.5 27.5" stroke-opacity="1" stroke-linejoin="bevel" stroke-miterlimit="10" stroke-dasharray=""/><path fill="none" stroke="rgb(0,0,0)" paint-order="fill" d="M 107.5 106.68991088867188 L 107.5 149.1877899169922" stroke-opacity="1" stroke-linejoin="bevel" stroke-miterlimit="10" stroke-dasharray="" clip-path="url(#wVQrpQLUEJmG)"/><path fill="none" stroke="rgb(0,0,0)" paint-order="fill" d="M 221.5 94.27127075195312 L 221.5 136.56785583496094" stroke-opacity="1" stroke-linejoin="bevel" stroke-miterlimit="10" stroke-dasharray="" clip-path="url(#wVQrpQLUEJmG)"/><path fill="none" stroke="rgb(0,0,0)" paint-order="fill" d="M 335.5 87.86966705322266 L 335.5 135.47625732421875" stroke-opacity="1" stroke-linejoin="bevel" stroke-miterlimit="10" stroke-dasharray="" clip-path="url(#wVQrpQLUEJmG)"/><path fill="none" stroke="rgb(0,0,0)" paint-order="fill" d="M 449.5 84.87287139892578 L 449.5 127.92916107177734" stroke-opacity="1" stroke-linejoin="bevel" stroke-miterlimit="10" stroke-dasharray="" clip-path="url(#wVQrpQLUEJmG)"/><path fill="none" stroke="rgb(0,0,0)" paint-order="fill" d="M 563.5 70.97877502441406 L 563.5 118.28509521484375" stroke-opacity="1" stroke-linejoin="bevel" stroke-miterlimit="10" stroke-dasharray="" clip-path="url(#wVQrpQLUEJmG)"/><path fill="none" stroke="rgb(0,0,0)" paint-order="fill" d="M 107.5 281.89520263671875 L 107.5 202.4229736328125" stroke-opacity="1" stroke-linejoin="bevel" stroke-miterlimit="10" stroke-dasharray="" clip-path="url(#OZgQkLENODPy)"/><path fill="none" stroke="rgb(0,0,0)" paint-order="fill" d="M 221.5 267.512451171875 L 221.5 189.08953857421875" stroke-opacity="1" stroke-linejoin="bevel" stroke-miterlimit="10" stroke-dasharray="" clip-path="url(#OZgQkLENODPy)"/><path fill="none" stroke="rgb(0,0,0)" paint-order="fill" d="M 335.5 261.2186584472656 L 335.5 185.8631591796875" stroke-opacity="1" stroke-linejoin="bevel" stroke-miterlimit="10" stroke-dasharray="" clip-path="url(#OZgQkLENODPy)"/><path fill="none" stroke="rgb(0,0,0)" paint-order="fill" d="M 449.5 248.56358337402344 L 449.5 176.2449951171875" stroke-opacity="1" stroke-linejoin="bevel" stroke-miterlimit="10" stroke-dasharray="" clip-path="url(#OZgQkLENODPy)"/><path fill="none" stroke="rgb(0,0,0)" paint-order="fill" d="M 563.5 239.24949645996094 L 563.5 166.68276977539062" stroke-opacity="1" stroke-linejoin="bevel" stroke-miterlimit="10" stroke-dasharray="" clip-path="url(#OZgQkLENODPy)"/><path fill="none" stroke="rgb(0,0,0)" paint-order="fill" d="M 84.70000457763672 281.89520263671875 L 130.3000030517578 281.89520263671875" stroke-opacity="1" stroke-linejoin="bevel" stroke-miterlimit="10" stroke-dasharray="" clip-path="url(#qBJsKVwPFbRX)"/><path fill="none" stroke="rgb(0,0,0)" paint-order="fill" d="M 198.6999969482422 267.512451171875 L 244.3000030517578 267.512451171875" stroke-opacity="1" stroke-linejoin="bevel" stroke-miterlimit="10" stroke-dasharray="" clip-path="url(#qBJsKVwPFbRX)"/><path fill="none" stroke="rgb(0,0,0)" paint-order="fill" d="M 312.6999816894531 261.2186584472656 L 358.3000183105469 261.2186584472656" stroke-opacity="1" stroke-linejoin="bevel" stroke-miterlimit="10" stroke-dasharray="" clip-path="url(#qBJsKVwPFbRX)"/><path fill="none" stroke="rgb(0,0,0)" paint-order="fill" d="M 426.6999816894531 248.56358337402344 L 472.3000183105469 248.56358337402344" stroke-opacity="1" stroke-linejoin="bevel" stroke-miterlimit="10" stroke-dasharray="" clip-path="url(#qBJsKVwPFbRX)"/><path fill="none" stroke="rgb(0,0,0)" paint-order="fill" d="M 540.7000122070312 239.24949645996094 L 586.2999877929688 239.24949645996094" stroke-opacity="1" stroke-linejoin="bevel" stroke-miterlimit="10" stroke-dasharray="" clip-path="url(#qBJsKVwPFbRX)"/><path fill="none" stroke="rgb(0,0,0)" paint-order="fill" d="M 84.70000457763672 106.68991088867188 L 130.3000030517578 106.68991088867188" stroke-opacity="1" stroke-linejoin="bevel" stroke-miterlimit="10" stroke-dasharray="" clip-path="url(#cNVTyCDcsMuH)"/><path fill="none" stroke="rgb(0,0,0)" paint-order="fill" d="M 198.6999969482422 94.27127075195312 L 244.3000030517578 94.27127075195312" stroke-opacity="1" stroke-linejoin="bevel" stroke-miterlimit="10" stroke-dasharray="" clip-path="url(#cNVTyCDcsMuH)"/><path fill="none" stroke="rgb(0,0,0)" paint-order="fill" d="M 312.6999816894531 87.86966705322266 L 358.3000183105469 87.86966705322266" stroke-opacity="1" stroke-linejoin="bevel" stroke-miterlimit="10" stroke-dasharray="" clip-path="url(#cNVTyCDcsMuH)"/><path fill="none" stroke="rgb(0,0,0)" paint-order="fill" d="M 426.6999816894531 84.87287139892578 L 472.3000183105469 84.87287139892578" stroke-opacity="1" stroke-linejoin="bevel" stroke-miterlimit="10" stroke-dasharray="" clip-path="url(#cNVTyCDcsMuH)"/><path fill="none" stroke="rgb(0,0,0)" paint-order="fill" d="M 540.7000122070312 70.97877502441406 L 586.2999877929688 70.97877502441406" stroke-opacity="1" stroke-linejoin="bevel" stroke-miterlimit="10" stroke-dasharray="" clip-path="url(#cNVTyCDcsMuH)"/><path fill="rgb(251,161,72)" stroke="rgb(0,0,0)" paint-order="fill" d="M 67.5999984741211 171.61781311035156 L 147.39999389648438 171.61781311035156 L 147.39999389648438 149.1877899169922 L 67.5999984741211 149.1877899169922 L 67.5999984741211 171.61781311035156" fill-opacity="1" clip-path="url(#CSWJzOIESSBd)" stroke-opacity="1" stroke-linejoin="bevel" stroke-miterlimit="10" stroke-dasharray=""/><path fill="rgb(251,161,72)" stroke="rgb(0,0,0)" paint-order="fill" d="M 181.60000610351562 158.67242431640625 L 261.3999938964844 158.67242431640625 L 261.3999938964844 136.56785583496094 L 181.60000610351562 136.56785583496094 L 181.60000610351562 158.67242431640625" fill-opacity="1" clip-path="url(#CSWJzOIESSBd)" stroke-opacity="1" stroke-linejoin="bevel" stroke-miterlimit="10" stroke-dasharray=""/><path fill="rgb(251,161,72)" stroke="rgb(0,0,0)" paint-order="fill" d="M 295.6000061035156 157.4613800048828 L 375.3999938964844 157.4613800048828 L 375.3999938964844 135.47625732421875 L 295.6000061035156 135.47625732421875 L 295.6000061035156 157.4613800048828" fill-opacity="1" clip-path="url(#CSWJzOIESSBd)" stroke-opacity="1" stroke-linejoin="bevel" stroke-miterlimit="10" stroke-dasharray=""/><path fill="rgb(251,161,72)" stroke="rgb(0,0,0)" paint-order="fill" d="M 409.6000061035156 149.23313903808594 L 489.3999938964844 149.23313903808594 L 489.3999938964844 127.92916107177734 L 409.6000061035156 127.92916107177734 L 409.6000061035156 149.23313903808594" fill-opacity="1" clip-path="url(#CSWJzOIESSBd)" stroke-opacity="1" stroke-linejoin="bevel" stroke-miterlimit="10" stroke-dasharray=""/><path fill="rgb(251,161,72)" stroke="rgb(0,0,0)" paint-order="fill" d="M 523.5999755859375 139.72589111328125 L 603.4000244140625 139.72589111328125 L 603.4000244140625 118.28509521484375 L 523.5999755859375 118.28509521484375 L 523.5999755859375 139.72589111328125" fill-opacity="1" clip-path="url(#CSWJzOIESSBd)" stroke-opacity="1" stroke-linejoin="bevel" stroke-miterlimit="10" stroke-dasharray=""/><path fill="rgb(251,161,72)" stroke="rgb(0,0,0)" paint-order="fill" d="M 67.5999984741211 202.4229736328125 L 147.39999389648438 202.4229736328125 L 147.39999389648438 171.61781311035156 L 67.5999984741211 171.61781311035156 L 67.5999984741211 202.4229736328125" fill-opacity="1" clip-path="url(#wCEAGtRAxqGL)" stroke-opacity="1" stroke-linejoin="bevel" stroke-miterlimit="10" stroke-dasharray=""/><path fill="rgb(251,161,72)" stroke="rgb(0,0,0)" paint-order="fill" d="M 181.60000610351562 189.08953857421875 L 261.3999938964844 189.08953857421875 L 261.3999938964844 158.67242431640625 L 181.60000610351562 158.67242431640625 L 181.60000610351562 189.08953857421875" fill-opacity="1" clip-path="url(#wCEAGtRAxqGL)" stroke-opacity="1" stroke-linejoin="bevel" stroke-miterlimit="10" stroke-dasharray=""/><path fill="rgb(251,161,72)" stroke="rgb(0,0,0)" paint-order="fill" d="M 295.6000061035156 185.8631591796875 L 375.3999938964844 185.8631591796875 L 375.3999938964844 157.4613800048828 L 295.6000061035156 157.4613800048828 L 295.6000061035156 185.8631591796875" fill-opacity="1" clip-path="url(#wCEAGtRAxqGL)" stroke-opacity="1" stroke-linejoin="bevel" stroke-miterlimit="10" stroke-dasharray=""/><path fill="rgb(251,161,72)" stroke="rgb(0,0,0)" paint-order="fill" d="M 409.6000061035156 176.2449951171875 L 489.3999938964844 176.2449951171875 L 489.3999938964844 149.23313903808594 L 409.6000061035156 149.23313903808594 L 409.6000061035156 176.2449951171875" fill-opacity="1" clip-path="url(#wCEAGtRAxqGL)" stroke-opacity="1" stroke-linejoin="bevel" stroke-miterlimit="10" stroke-dasharray=""/><path fill="rgb(251,161,72)" stroke="rgb(0,0,0)" paint-order="fill" d="M 523.5999755859375 166.68276977539062 L 603.4000244140625 166.68276977539062 L 603.4000244140625 139.72589111328125 L 523.5999755859375 139.72589111328125 L 523.5999755859375 166.68276977539062" fill-opacity="1" clip-path="url(#wCEAGtRAxqGL)" stroke-opacity="1" stroke-linejoin="bevel" stroke-miterlimit="10" stroke-dasharray=""/><path fill="none" stroke="rgb(0,0,0)" paint-order="fill" d="M 50.5 350.5 L 620.5 350.5" stroke-opacity="1" stroke-linejoin="bevel" stroke-miterlimit="10" stroke-dasharray=""/><path fill="none" stroke="rgb(0,0,0)" paint-order="fill" d="M 107.5 356.5 L 107.5 348.5 M 221.5 356.5 L 221.5 348.5 M 335.5 356.5 L 335.5 348.5 M 449.5 356.5 L 449.5 348.5 M 563.5 356.5 L 563.5 348.5" stroke-opacity="1" stroke-linejoin="bevel" stroke-miterlimit="10" stroke-dasharray=""/><path fill="none" stroke="rgb(0,0,0)" paint-order="fill" d="" stroke-opacity="1" stroke-linejoin="bevel" stroke-miterlimit="10" stroke-dasharray=""/><text fill="rgb(68,68,68)" stroke="none" font-family="helvetica" font-size="11px" font-style="normal" font-weight="normal" text-decoration="normal" x="62.66666793823242" y="371.4521484375" text-anchor="start" dominant-baseline="alphabetic" transform="matrix(1, 0, 0, 1, 0.5, 0.5)" fill-opacity="1">Historical 1980-99</text><text fill="rgb(68,68,68)" stroke="none" font-family="helvetica" font-size="11px" font-style="normal" font-weight="normal" text-decoration="normal" x="175.7583351135254" y="371.4521484375" text-anchor="start" dominant-baseline="alphabetic" transform="matrix(1, 0, 0, 1, 0.5, 0.5)" fill-opacity="1">SSP3-7.0 2020-39</text><text fill="rgb(68,68,68)" stroke="none" font-family="helvetica" font-size="11px" font-style="normal" font-weight="normal" text-decoration="normal" x="289.7583351135254" y="371.4521484375" text-anchor="start" dominant-baseline="alphabetic" transform="matrix(1, 0, 0, 1, 0.5, 0.5)" fill-opacity="1">SSP3-7.0 2040-59</text><text fill="rgb(68,68,68)" stroke="none" font-family="helvetica" font-size="11px" font-style="normal" font-weight="normal" text-decoration="normal" x="403.7583351135254" y="371.4521484375" text-anchor="start" dominant-baseline="alphabetic" transform="matrix(1, 0, 0, 1, 0.5, 0.5)" fill-opacity="1">SSP3-7.0 2060-79</text><text fill="rgb(68,68,68)" stroke="none" font-family="helvetica" font-size="11px" font-style="normal" font-weight="normal" text-decoration="normal" x="517.7583351135254" y="371.4521484375" text-anchor="start" dominant-baseline="alphabetic" transform="matrix(1, 0, 0, 1, 0.5, 0.5)" fill-opacity="1">SSP3-7.0 2080-99</text><text fill="rgb(68,68,68)" stroke="none" font-family="helvetica" font-size="13px" font-style="italic" font-weight="normal" text-decoration="normal" x="290.20000076293945" y="394.35205078125" text-anchor="start" dominant-baseline="alphabetic" transform="matrix(1, 0, 0, 1, 0.5, 0.5)" fill-opacity="1">Climate Models</text><path fill="none" stroke="rgb(0,0,0)" paint-order="fill" d="M 50.5 350.5 L 50.5 27.5" stroke-opacity="1" stroke-linejoin="bevel" stroke-miterlimit="10" stroke-dasharray=""/><path fill="none" stroke="rgb(0,0,0)" paint-order="fill" d="M 44.5 350.5 L 52.5 350.5 M 44.5 285.5 L 52.5 285.5 M 44.5 221.5 L 52.5 221.5 M 44.5 156.5 L 52.5 156.5 M 44.5 92.5 L 52.5 92.5 M 44.5 27.5 L 52.5 27.5" stroke-opacity="1" stroke-linejoin="bevel" stroke-miterlimit="10" stroke-dasharray=""/><path fill="none" stroke="rgb(0,0,0)" paint-order="fill" d="M 46.5 350.5 L 50.5 350.5 M 46.5 337.5 L 50.5 337.5 M 46.5 324.5 L 50.5 324.5 M 46.5 311.5 L 50.5 311.5 M 46.5 298.5 L 50.5 298.5 M 46.5 285.5 L 50.5 285.5 M 46.5 272.5 L 50.5 272.5 M 46.5 260.5 L 50.5 260.5 M 46.5 247.5 L 50.5 247.5 M 46.5 234.5 L 50.5 234.5 M 46.5 221.5 L 50.5 221.5 M 46.5 208.5 L 50.5 208.5 M 46.5 195.5 L 50.5 195.5 M 46.5 182.5 L 50.5 182.5 M 46.5 169.5 L 50.5 169.5 M 46.5 156.5 L 50.5 156.5 M 46.5 143.5 L 50.5 143.5 M 46.5 130.5 L 50.5 130.5 M 46.5 117.5 L 50.5 117.5 M 46.5 105.5 L 50.5 105.5 M 46.5 92.5 L 50.5 92.5 M 46.5 79.5 L 50.5 79.5 M 46.5 66.5 L 50.5 66.5 M 46.5 53.5 L 50.5 53.5 M 46.5 40.5 L 50.5 40.5 M 46.5 27.5 L 50.5 27.5" stroke-opacity="1" stroke-linejoin="bevel" stroke-miterlimit="10" stroke-dasharray=""/><text fill="rgb(68,68,68)" stroke="none" font-family="helvetica" font-size="11px" font-style="normal" font-weight="normal" text-decoration="normal" x="26.766666412353516" y="353.945068359375" text-anchor="start" dominant-baseline="alphabetic" transform="matrix(1, 0, 0, 1, 0.5, 0.5)" fill-opacity="1">10</text><text fill="rgb(68,68,68)" stroke="none" font-family="helvetica" font-size="11px" font-style="normal" font-weight="normal" text-decoration="normal" x="26.766666412353516" y="289.3450622558594" text-anchor="start" dominant-baseline="alphabetic" transform="matrix(1, 0, 0, 1, 0.5, 0.5)" fill-opacity="1">20</text><text fill="rgb(68,68,68)" stroke="none" font-family="helvetica" font-size="11px" font-style="normal" font-weight="normal" text-decoration="normal" x="26.766666412353516" y="224.7450714111328" text-anchor="start" dominant-baseline="alphabetic" transform="matrix(1, 0, 0, 1, 0.5, 0.5)" fill-opacity="1">30</text><text fill="rgb(68,68,68)" stroke="none" font-family="helvetica" font-size="11px" font-style="normal" font-weight="normal" text-decoration="normal" x="26.766666412353516" y="160.1450653076172" text-anchor="start" dominant-baseline="alphabetic" transform="matrix(1, 0, 0, 1, 0.5, 0.5)" fill-opacity="1">40</text><text fill="rgb(68,68,68)" stroke="none" font-family="helvetica" font-size="11px" font-style="normal" font-weight="normal" text-decoration="normal" x="26.766666412353516" y="95.5450668334961" text-anchor="start" dominant-baseline="alphabetic" transform="matrix(1, 0, 0, 1, 0.5, 0.5)" fill-opacity="1">50</text><text fill="rgb(68,68,68)" stroke="none" font-family="helvetica" font-size="11px" font-style="normal" font-weight="normal" text-decoration="normal" x="26.766666412353516" y="30.945068359375" text-anchor="start" dominant-baseline="alphabetic" transform="matrix(1, 0, 0, 1, 0.5, 0.5)" fill-opacity="1">60</text><text fill="rgb(68,68,68)" stroke="none" font-family="helvetica" font-size="13px" font-style="italic" font-weight="normal" text-decoration="normal" x="-59.16666793823242" y="185.62451171875" text-anchor="start" dominant-baseline="alphabetic" transform="matrix(6.123233995736766e-17, -1, 1, 6.123233995736766e-17, -169.23333358764648, 207.76666641235352)" fill-opacity="1">Return Values (Degrees C)</text><text fill="rgb(68,68,68)" stroke="none" font-family="helvetica" font-size="13px" font-style="normal" font-weight="bold" text-decoration="normal" x="50" y="19.1689453125" text-anchor="start" dominant-baseline="alphabetic" transform="matrix(1, 0, 0, 1, 0.5, 0.5)" fill-opacity="1">CNRM-ESM2-1 Return Values (Degrees C) for 1-in-10-year Event</text></svg>